<svg version="1.1" viewBox="0 0 94 94" xmlns="http://www.w3.org/2000/svg">
 <path d="m75.468 20.562c-5.9702 0-10.946 1.7383-14.929 5.2126-3.8544 3.4744-5.8466 7.8189-5.8466 13.031 0 7.5721 4.8507 12.289 14.677 14.274 5.97 1.2426 7.7133 2.3595 7.7133 4.3445 0 2.7319-2.6138 4.0979-7.7133 4.0979-2.3648 0-4.8507-.49798-7.3365-1.4915-2.3648-.99144-4.2314-2.3573-5.4765-4.0955l-8.2092 10.053c4.8507 4.9658 11.444 7.4487 20.028 7.4487 11.195 0 22.267-5.3382 22.267-18.37 0-7.4466-4.1058-12.163-15.178-14.274-5.8445-1.117-7.4643-2.2339-7.4643-4.2189 0-2.7319 2.8628-3.9745 6.8428-3.9745 4.6038 0 8.2093 1.2426 10.946 3.8489l8.2092-9.9295c-4.6015-3.9701-10.697-5.9573-18.534-5.9573z" fill="#280b0b"/>
 <path d="m30.228 20.562c-8.3341 0-15.425 2.9786-21.396 9.0614-5.9703 6.0806-8.8324 13.157-8.8324 21.472 0 6.7042 1.9909 12.166 6.2202 16.261 4.1051 4.0956 9.7024 6.0806 16.918 6.0806 7.9612 0 14.554-2.2341 19.654-6.5786l-7.091-10.427c-3.3585 3.351-7.3403 4.9681-11.818 4.9681-6.3441 0-10.571-4.0977-10.571-10.925 0-11.17 5.9707-17.872 16.046-17.872 4.7268 0 7.9611 1.7383 9.9514 5.0893l9.2038-8.8125c-4.727-5.585-9.8253-8.3169-18.285-8.3169z" fill="#280b0b"/>
</svg>
